<svg xmlns="http://www.w3.org/2000/svg" width="131.754" height="111.488" viewBox="0 0 131.754 111.488"><path d="M352.312,1982.511a20.617,20.617,0,0,0-1.379-2.152q-21.994-31.331-44.03-62.64a12.2,12.2,0,0,1-2.43-7.429c.072-9.356-.015-18.72.029-28.076.022-3.146-1.263-4.737-4.532-4.722q-16.048.077-32.09,0c-3.569-.015-5.015,1.664-4.948,5.159.11,5.467,0,10.941.029,16.407.022,5.438.7,6.137,6.073,6.167,8.028.036,16.048-.015,24.069.051,1.62.014,3.816-.329,4.086,2.006.4,3.459.745,6.831-2.327,9.773-7.642,7.3-15,14.9-22.472,22.383-5.853,5.853-5.853,5.853-11.9.124-4.152-3.919-5.97-3.75-9.247.963q-13.509,19.475-26.989,38.965a24.455,24.455,0,0,0-2.32,3.7c-1.307,2.86-.1,5.1,3.007,5.6a27.827,27.827,0,0,0,4.364.176q28.8.01,57.612.006t57.618-.006a33.881,33.881,0,0,0,4.73-.176C353.02,1988.256,354.122,1985.913,352.312,1982.511Zm-64.464-84.322c-1.46.029-2.912.007-4.365.007v-.036c-3.394,0-6.787-.036-10.181.014-2.276.037-3.306-1-3.313-3.269-.044-12.429-1.007-10.087,9.386-10.283,4.846-.095,9.692.051,14.538-.015,2.452-.036,3.5.986,3.489,3.459C297.327,1900.065,298.568,1897.964,287.848,1898.19Zm53.7,82.8c-.642,1.219-2.175.862-3.35.862q-25.528.032-51.057.021-24.806,0-49.605-.021c-1.525,0-3.577.65-4.422-.824-.883-1.525.861-2.847,1.708-4.072,6.459-9.422,13.041-18.764,19.463-28.214,1.605-2.357,2.876-2.488,4.758-.4,7.67,8.5,8.254,6.62,15.035-.175,7.9-7.918,15.88-15.757,23.653-23.785,2.4-2.474,3.721-2.1,5.553.533,12.276,17.676,24.654,35.271,36.965,52.918C340.9,1978.769,342.2,1979.738,341.547,1980.986Z" transform="translate(-221.41 -1877.492)" fill="#2a7686"/></svg>