<svg xmlns="http://www.w3.org/2000/svg" width="117.952" height="112.911" viewBox="0 0 117.952 112.911"><path d="M1163.7,1928.351c2.44-2.4,3.905-5.218,2.748-8.721-1.177-3.574-3.854-5.2-7.514-5.714-8.635-1.212-17.233-2.735-25.89-3.789-3.367-.41-4.974-2.125-6.3-4.93-3.567-7.566-7.314-15.052-11-22.56-1.637-3.316-4.005-5.72-7.974-5.713-4.026.007-6.144,2.627-7.759,5.937-3.775,7.737-7.673,15.409-11.406,23.161a6.367,6.367,0,0,1-5.391,4c-8.526,1.141-17,2.655-25.53,3.789-3.861.51-6.977,1.759-8.334,5.671-1.385,4,.653,6.9,3.344,9.525,6.252,6.086,12.461,12.216,18.77,18.245a5.388,5.388,0,0,1,1.888,5.375c-1.558,8.585-2.842,17.22-4.478,25.782-.732,3.819-.6,7.192,2.656,9.725,3.279,2.549,6.69,1.881,10.092.073,6.646-3.531,13.466-6.776,19.932-10.624,4.394-2.612,8.075-2.785,12.54-.086,6.431,3.9,13.25,7.142,19.911,10.66a10.529,10.529,0,0,0,5.419,1.672,8.071,8.071,0,0,0,7.845-9.488c-1.515-9.073-3.072-18.138-4.773-27.182a5.934,5.934,0,0,1,1.938-6.043C1150.934,1940.947,1157.3,1934.639,1163.7,1928.351ZM1135,1952.41c1.242,7.428,2.62,14.829,3.812,22.265.366,2.282,1.83,5.368.015,6.725-1.716,1.278-4.034-1.263-5.994-2.269q-10.067-5.123-20.025-10.471a9.772,9.772,0,0,0-9.9.021c-7.8,4.156-15.654,8.24-23.5,12.331-1.888.983-3.582,1.507-3.273-1.773,1.385-8.01,2.583-16.057,4.227-24.009,1.171-5.678.136-10.07-4.464-14.047-5.871-5.068-11.191-10.781-16.71-16.243-.826-.818-2.233-1.579-1.88-2.843.423-1.543,2.174-1.242,3.394-1.42,7.918-1.192,15.834-2.426,23.78-3.367,5.111-.609,8.455-2.834,10.595-7.723,3.308-7.551,7.221-14.829,10.923-22.2.446-.9.7-2.269,2.075-2.131,1.083.108,1.305,1.305,1.715,2.131,3.94,7.924,7.91,15.834,11.735,23.808a9.056,9.056,0,0,0,7.292,5.613q12.952,1.84,25.891,3.819c1.327.207,3.279-.159,3.718,1.5.359,1.357-1.236,2.2-2.139,3.094-5.965,5.864-11.887,11.786-18,17.492A10.1,10.1,0,0,0,1135,1952.41Z" transform="translate(-1048.895 -1876.923)" fill="#2a7686"/></svg>