<svg xmlns="http://www.w3.org/2000/svg" width="155.195" height="84.894" viewBox="0 0 155.195 84.894"><path d="M691.254,1908.7c-3.944,1.25-5.6,2.8-3.248,7.243,3.2,6.063-.545,12.216-7.233,11.722-4.973-.374-5.255,1.846-5,5.538.726,11.117,11.359,20.519,23.061,20.287,12.771-.251,22.344-10.148,22.324-23.08C721.135,1914.419,706.567,1903.878,691.254,1908.7Zm0,0c-3.944,1.25-5.6,2.8-3.248,7.243,3.2,6.063-.545,12.216-7.233,11.722-4.973-.374-5.255,1.846-5,5.538.726,11.117,11.359,20.519,23.061,20.287,12.771-.251,22.344-10.148,22.324-23.08C721.135,1914.419,706.567,1903.878,691.254,1908.7Zm83.235,18.289c-15.474-17.523-33.632-31.263-56.753-36.488-39.515-8.917-69.516,8.292-95.139,36.357-2.33,2.552-2.29,5.054.171,7.525,3.924,3.924,7.6,8.12,11.743,11.773,18.319,16.16,39.12,26.52,66.5,26.874,29.255-1.008,53.345-16.464,73.642-39.313C776.7,1931.427,776.457,1929.219,774.489,1926.989Zm-13.346,6.295c-17.583,17.3-37.8,28.922-63.523,29.718-19.974-.867-37.4-8.816-52.841-21.6-3.107-2.562-6.023-5.367-9.008-8.08q-3.026-2.738-.081-5.609c30.1-29.385,67.569-41.39,107.487-14.759a98.522,98.522,0,0,1,17.856,14.728C762.879,1929.672,763.121,1931.326,761.143,1933.284ZM691.254,1908.7c-3.944,1.25-5.6,2.8-3.248,7.243,3.2,6.063-.545,12.216-7.233,11.722-4.973-.374-5.255,1.846-5,5.538.726,11.117,11.359,20.519,23.061,20.287,12.771-.251,22.344-10.148,22.324-23.08C721.135,1914.419,706.567,1903.878,691.254,1908.7Z" transform="translate(-620.885 -1888.136)" fill="#2a7686"/></svg>